<?xml version="1.0" encoding="iso-8859-1"?>
<!-- Generator: Adobe Illustrator 19.0.0, SVG Export Plug-In . SVG Version: 6.00 Build 0)  -->
<svg version="1.1" id="Layer_1" xmlns="http://www.w3.org/2000/svg" xmlns:xlink="http://www.w3.org/1999/xlink" x="0px" y="0px"
	 viewBox="0 0 512 512" style="enable-background:new 0 0 512 512;" xml:space="preserve">
<path style="fill:#F2385A;" d="M176,253.6V68.8c-15.8-2.368-33.168-4.72-52.088-4.776c-12.248,0.024-24.48,0.832-35.912,2.464V255.2
	l47.2-41.6L176,253.6z"/>
<g>
	<path style="fill:#E8E8E8;" d="M192,292v0.8L134.4,236L72,291.2V69.6c-19.2,4-38.4,10.4-56,19.2v350.4c24.8-8.8,66.4-21.6,116-21.6
		c40.8,0,80,8,116,24.8V92.8c-1.6-0.8-23.2-12-56-20V292z"/>
	<path style="fill:#E8E8E8;" d="M264,92.8v349.6c36-16,75.2-24.8,116-24.8c49.6,0,91.2,12,116,21.6h0.8V88.8
		C463.2,72,427.2,64,388.8,64C319.2,64,266.4,91.2,264,92.8z"/>
</g>
<path d="M388.8,48C312.8,48,256,78.4,256,78.4S199.2,48,123.2,48C85.6,48,42.4,56,0,78.4V464c0,0,56-30.4,132-30.4
	c37.6,0,80.8,8,124,30.4c43.2-23.2,86.4-30.4,124-30.4c76,0,132,30.4,132,30.4V78.4C469.6,56,426.4,48,388.8,48z M88,66.488V66.4
	c12-1.6,24-2.4,35.2-2.4c0.24,0,0.472,0.024,0.712,0.024C142.832,64.08,160.2,66.432,176,68.8v184.8l-40.8-40L88,255.2V66.488z
	 M248,442.4c-36-16.8-75.2-24.8-116-24.8c-49.6,0-91.2,12.8-116,21.6V88.8C33.6,80,52.8,73.6,72,69.6v221.6l62.4-55.2l57.6,56V72.8
	c32.8,8,54.4,19.2,56,20V442.4z M496.8,439.2H496c-24.8-9.6-66.4-21.6-116-21.6c-40.8,0-80,8.8-116,24.8V92.8
	c2.4-1.6,55.2-28.8,124.8-28.8c38.4,0,74.4,8,108,24.8V439.2z"/>
<g>
</g>
<g>
</g>
<g>
</g>
<g>
</g>
<g>
</g>
<g>
</g>
<g>
</g>
<g>
</g>
<g>
</g>
<g>
</g>
<g>
</g>
<g>
</g>
<g>
</g>
<g>
</g>
<g>
</g>
</svg>
